<svg width="27" height="27" viewBox="0 0 27 27" fill="none" xmlns="http://www.w3.org/2000/svg">
<path d="M23.3998 6.9001H2.7748V6.0751L20.9248 4.6231V6.0751H23.3998V3.6001C23.3998 1.7851 21.9297 0.511299 20.1345 0.767049L3.5668 3.13315C1.76995 3.39055 0.299805 5.0851 0.299805 6.9001V23.4001C0.299805 24.2753 0.647482 25.1147 1.26635 25.7336C1.88522 26.3524 2.72459 26.7001 3.5998 26.7001H23.3998C24.275 26.7001 25.1144 26.3524 25.7333 25.7336C26.3521 25.1147 26.6998 24.2753 26.6998 23.4001V10.2001C26.6998 9.32488 26.3521 8.48552 25.7333 7.86665C25.1144 7.24778 24.275 6.9001 23.3998 6.9001ZM20.9248 18.46C20.5997 18.4599 20.2777 18.3957 19.9774 18.2712C19.6771 18.1467 19.4042 17.9642 19.1744 17.7343C18.9445 17.5043 18.7623 17.2313 18.6379 16.9309C18.5136 16.6304 18.4497 16.3085 18.4498 15.9833C18.4499 15.6582 18.5141 15.3363 18.6386 15.036C18.7631 14.7356 18.9456 14.4627 19.1755 14.2329C19.4055 14.0031 19.6785 13.8208 19.9789 13.6965C20.2794 13.5722 20.6013 13.5082 20.9265 13.5083C21.5831 13.5086 22.2127 13.7696 22.6769 14.2341C23.141 14.6985 23.4017 15.3284 23.4015 15.985C23.4012 16.6416 23.1402 17.2713 22.6757 17.7354C22.2113 18.1996 21.5814 18.4602 20.9248 18.46Z" fill="#020A35"/>
</svg>
